<svg id="visual" viewBox="0 0 960 300" width="960" height="300" xmlns="http://www.w3.org/2000/svg" xmlns:xlink="http://www.w3.org/1999/xlink" version="1.1"><rect x="0" y="0" width="960" height="300" fill="#B1D0E0"></rect><path d="M0 208L11.5 202.8C23 197.7 46 187.3 68.8 175.8C91.7 164.3 114.3 151.7 137.2 150C160 148.3 183 157.7 205.8 162.8C228.7 168 251.3 169 274.2 180C297 191 320 212 342.8 209.7C365.7 207.3 388.3 181.7 411.2 170C434 158.3 457 160.7 480 161.3C503 162 526 161 548.8 163.2C571.7 165.3 594.3 170.7 617.2 180.5C640 190.3 663 204.7 685.8 206.8C708.7 209 731.3 199 754.2 201C777 203 800 217 822.8 223.3C845.7 229.7 868.3 228.3 891.2 209.8C914 191.3 937 155.7 948.5 137.8L960 120L960 0L948.5 0C937 0 914 0 891.2 0C868.3 0 845.7 0 822.8 0C800 0 777 0 754.2 0C731.3 0 708.7 0 685.8 0C663 0 640 0 617.2 0C594.3 0 571.7 0 548.8 0C526 0 503 0 480 0C457 0 434 0 411.2 0C388.3 0 365.7 0 342.8 0C320 0 297 0 274.2 0C251.3 0 228.7 0 205.8 0C183 0 160 0 137.2 0C114.3 0 91.7 0 68.8 0C46 0 23 0 11.5 0L0 0Z" fill="#b1d0e0"></path><path d="M0 181L11.5 168.3C23 155.7 46 130.3 68.8 127C91.7 123.7 114.3 142.3 137.2 154.7C160 167 183 173 205.8 170.5C228.7 168 251.3 157 274.2 141.7C297 126.3 320 106.7 342.8 111.5C365.7 116.3 388.3 145.7 411.2 148.2C434 150.7 457 126.3 480 112C503 97.7 526 93.3 548.8 107.5C571.7 121.7 594.3 154.3 617.2 158.5C640 162.7 663 138.3 685.8 123C708.7 107.7 731.3 101.3 754.2 109.2C777 117 800 139 822.8 148.7C845.7 158.3 868.3 155.7 891.2 153.7C914 151.7 937 150.3 948.5 149.7L960 149L960 0L948.5 0C937 0 914 0 891.2 0C868.3 0 845.7 0 822.8 0C800 0 777 0 754.2 0C731.3 0 708.7 0 685.8 0C663 0 640 0 617.2 0C594.3 0 571.7 0 548.8 0C526 0 503 0 480 0C457 0 434 0 411.2 0C388.3 0 365.7 0 342.8 0C320 0 297 0 274.2 0C251.3 0 228.7 0 205.8 0C183 0 160 0 137.2 0C114.3 0 91.7 0 68.8 0C46 0 23 0 11.5 0L0 0Z" fill="#88a7b9"></path><path d="M0 97L11.5 100.5C23 104 46 111 68.8 107.5C91.7 104 114.3 90 137.2 95C160 100 183 124 205.8 124.2C228.7 124.3 251.3 100.7 274.2 90.2C297 79.7 320 82.3 342.8 89.8C365.7 97.3 388.3 109.7 411.2 119.5C434 129.3 457 136.7 480 131.3C503 126 526 108 548.8 109.2C571.7 110.3 594.3 130.7 617.2 137C640 143.3 663 135.7 685.8 125.3C708.7 115 731.3 102 754.2 93.8C777 85.7 800 82.3 822.8 87.3C845.7 92.3 868.3 105.7 891.2 107C914 108.3 937 97.7 948.5 92.3L960 87L960 0L948.5 0C937 0 914 0 891.2 0C868.3 0 845.7 0 822.8 0C800 0 777 0 754.2 0C731.3 0 708.7 0 685.8 0C663 0 640 0 617.2 0C594.3 0 571.7 0 548.8 0C526 0 503 0 480 0C457 0 434 0 411.2 0C388.3 0 365.7 0 342.8 0C320 0 297 0 274.2 0C251.3 0 228.7 0 205.8 0C183 0 160 0 137.2 0C114.3 0 91.7 0 68.8 0C46 0 23 0 11.5 0L0 0Z" fill="#627f93"></path><path d="M0 74L11.5 71.2C23 68.3 46 62.7 68.8 63.8C91.7 65 114.3 73 137.2 71.3C160 69.7 183 58.3 205.8 61.5C228.7 64.7 251.3 82.3 274.2 91.2C297 100 320 100 342.8 95.2C365.7 90.3 388.3 80.7 411.2 71.7C434 62.7 457 54.3 480 60.8C503 67.3 526 88.7 548.8 92.7C571.7 96.7 594.3 83.3 617.2 83.3C640 83.3 663 96.7 685.8 93.8C708.7 91 731.3 72 754.2 64.2C777 56.3 800 59.7 822.8 64.7C845.7 69.7 868.3 76.3 891.2 79.7C914 83 937 83 948.5 83L960 83L960 0L948.5 0C937 0 914 0 891.2 0C868.3 0 845.7 0 822.8 0C800 0 777 0 754.2 0C731.3 0 708.7 0 685.8 0C663 0 640 0 617.2 0C594.3 0 571.7 0 548.8 0C526 0 503 0 480 0C457 0 434 0 411.2 0C388.3 0 365.7 0 342.8 0C320 0 297 0 274.2 0C251.3 0 228.7 0 205.8 0C183 0 160 0 137.2 0C114.3 0 91.7 0 68.8 0C46 0 23 0 11.5 0L0 0Z" fill="#3e5a6f"></path><path d="M0 61L11.5 58.7C23 56.3 46 51.7 68.8 48.5C91.7 45.3 114.3 43.7 137.2 47.8C160 52 183 62 205.8 66C228.7 70 251.3 68 274.2 64.7C297 61.3 320 56.7 342.8 50.3C365.7 44 388.3 36 411.2 38.5C434 41 457 54 480 54.7C503 55.3 526 43.7 548.8 42.2C571.7 40.7 594.3 49.3 617.2 53.2C640 57 663 56 685.8 54.2C708.7 52.3 731.3 49.7 754.2 51.8C777 54 800 61 822.8 65C845.7 69 868.3 70 891.2 64C914 58 937 45 948.5 38.5L960 32L960 0L948.5 0C937 0 914 0 891.2 0C868.3 0 845.7 0 822.8 0C800 0 777 0 754.2 0C731.3 0 708.7 0 685.8 0C663 0 640 0 617.2 0C594.3 0 571.7 0 548.8 0C526 0 503 0 480 0C457 0 434 0 411.2 0C388.3 0 365.7 0 342.8 0C320 0 297 0 274.2 0C251.3 0 228.7 0 205.8 0C183 0 160 0 137.2 0C114.3 0 91.7 0 68.8 0C46 0 23 0 11.5 0L0 0Z" fill="#1a374d"></path></svg>