<svg id="visual" viewBox="0 0 960 300" width="960" height="300" xmlns="http://www.w3.org/2000/svg" xmlns:xlink="http://www.w3.org/1999/xlink" version="1.1"><rect x="0" y="0" width="960" height="300" fill="#1A374D"></rect><path d="M0 103L26.7 119.5C53.3 136 106.7 169 160 192.7C213.3 216.3 266.7 230.7 320 230.2C373.3 229.7 426.7 214.3 480 197.7C533.3 181 586.7 163 640 168.8C693.3 174.7 746.7 204.3 800 207.8C853.3 211.3 906.7 188.7 933.3 177.3L960 166L960 301L933.3 301C906.7 301 853.3 301 800 301C746.7 301 693.3 301 640 301C586.7 301 533.3 301 480 301C426.7 301 373.3 301 320 301C266.7 301 213.3 301 160 301C106.7 301 53.3 301 26.7 301L0 301Z" fill="#B1D0E0" stroke-linecap="round" stroke-linejoin="miter"></path></svg>